<svg width="1146" height="250" viewBox="0 0 1146 250" fill="none" xmlns="http://www.w3.org/2000/svg">
<g clip-path="url(#clip0_12_4)">
<path d="M1146 0H0V720H1146V0Z" fill="white"/>
<path d="M1596.26 308.729C1747.03 380.849 1948.34 398.129 1941.46 477.449C1934.72 556.889 1719.78 698.369 1694.56 865.889C1669.48 1033.29 1833.99 1226.61 1807.51 1275.09C1781.15 1323.45 1563.79 1226.97 1421.31 1178.73C1278.82 1130.49 1211.08 1130.49 1061.85 1184.25C912.611 1238.01 681.883 1345.53 542.707 1312.41C403.532 1279.17 356.037 1105.41 350.816 938.129C345.723 770.969 383.031 610.409 497.504 528.329C612.104 446.249 803.868 442.769 941.388 364.889C1078.78 287.009 1161.93 134.849 1253.61 122.249C1345.29 109.649 1445.5 236.609 1596.26 308.729Z" fill="black"/>
</g>
<defs>
<clipPath id="clip0_12_4">
<rect width="1146" height="720" fill="white"/>
</clipPath>
</defs>
</svg>
