<svg id="visual" viewBox="0 0 900 600" width="900" height="600" xmlns="http://www.w3.org/2000/svg" xmlns:xlink="http://www.w3.org/1999/xlink" version="1.1"><path d="M0 513L30 519C60 525 120 537 180 541.5C240 546 300 543 360 530.8C420 518.7 480 497.3 540 487.2C600 477 660 478 720 484C780 490 840 501 870 506.5L900 512L900 601L870 601C840 601 780 601 720 601C660 601 600 601 540 601C480 601 420 601 360 601C300 601 240 601 180 601C120 601 60 601 30 601L0 601Z" fill="#000" stroke-linecap="round" stroke-linejoin="miter"></path></svg>